<svg width="512" height="512" viewBox="0 0 512 512" fill="none" xmlns="http://www.w3.org/2000/svg">
<path d="M204.973 24.0246C135.499 20.3832 174.474 193.616 174.474 193.616L226.769 183.38C226.769 183.38 273.941 27.6394 204.973 24.0246Z" fill="#EEEEEE"/>
<path d="M315.564 24.0246C252.4 8.20474 280.779 180.821 280.779 180.821L332.216 232C332.216 232 373.745 38.5962 315.564 24.0246Z" fill="#EEEEEE"/>
<path d="M204.973 24.0246C135.499 20.3832 174.474 193.616 174.474 193.616L226.769 183.38C226.769 183.38 273.941 27.6394 204.973 24.0246Z" stroke="#282829" stroke-width="24"/>
<path d="M315.564 24.0246C252.4 8.20474 280.779 180.821 280.779 180.821L332.216 232C332.216 232 373.745 38.5962 315.564 24.0246Z" stroke="#282829" stroke-width="24"/>
<path d="M112.886 198.728L306.275 174.538C308.164 174.302 309.959 175.43 310.564 177.235L403.347 454.074C404.149 456.47 402.558 459.001 400.051 459.315L206.661 483.505C204.772 483.741 202.977 482.612 202.372 480.806L109.59 203.969C108.787 201.573 110.379 199.042 112.886 198.728Z" fill="#EEEEEE" stroke="#282829" stroke-width="24"/>
<path d="M232.452 273C194.044 315.139 207.538 385.028 262.555 370.639L260.479 384L281.24 377.833L271.897 367.556C335.218 350.083 285.392 289.444 232.452 273Z" fill="#282829"/>
</svg>
